<svg xmlns="http://www.w3.org/2000/svg" viewBox="0 0 32 32" width="24" height="24"><title>GitHub</title><circle cx="16" cy="16" r="16" fill="#181717"/><path fill="#fff" d="M16 7c-5 0-9 4-9 9 0 4 2.5 7.5 6 8.5.5 0 .5-.5.5-1v-2c-2.5.5-3-1-3-1-.5-1-1-1.5-1-1.5-.5-.5 0-.5 0-.5 1 0 1.5 1 1.5 1 .5 1 1.5 1 2 1 .5 0 1-.5 1-1v-2c-2.5.5-3-1-3-1-.5-1-1-1.5-1-1.5-.5-.5 0-.5 0-.5 1 0 1.5 1 1.5 1 .5 1 1.5 1 2 1 .5 0 1-.5 1-1v-2c0-.5 0-1 .5-1.5 0 0 0 0 0 0 .5-.5 1.5-.5 2.5 0 .5.5.5 1 .5 1.5v2c0 .5.5 1 1 1 .5 0 1.5-1 2-1 .5-1 1.5-1 2-1 .5 0 1.5 1 2 1 .5 1 1.5 1 2 1 .5 0 1-.5 1-1v-2c0-.5 0-1 .5-1.5 0 0 0 0 0 0 .5-.5 1.5-.5 2.5 0 .5.5.5 1 .5 1.5v2c0 .5.5 1 1 1 .5 0 1.5-1 2-1 .5-1 1.5-1 2-1 .5 0 1.5 1 2 1 .5 1 1.5 1 2 1 .5 0 1-.5 1-1v-2c0-.5 0-1 .5-1.5 0 0 0 0 0 0 .5-.5 1.5-.5 2.5 0 .5.5.5 1 .5 1.5v2c0 .5.5 1 1 1 .5 0 1.5-1 2-1 .5-1 1.5-1 2-1 .5 0 1.5 1 2 1 .5 1 1.5 1 2 1 .5 0 1-.5 1-1v-2c0-.5 0-1 .5-1.5 0 0 0 0 0 0 .5-.5 1.5-.5 2.5 0 .5.5.5 1 .5 1.5v2c0 .5.5 1 1 1 .5 0 1.5-1 2-1 .5-1 1.5-1 2-1 .5 0 1.5 1 2 1 .5 1 1.5 1 2 1 .5 0 1-.5 1-1v-2c0-.5 0-1 .5-1.5z"/></svg>